<svg width="83" height="83" viewBox="0 0 83 83" fill="none" xmlns="http://www.w3.org/2000/svg">
<path d="M0 41.5C0 18.5802 18.5802 0 41.5 0C64.4198 0 83 18.5802 83 41.5C83 64.4198 64.4198 83 41.5 83C18.5802 83 0 64.4198 0 41.5Z" fill="#292E36"/>
<path d="M25.4894 27.8083C22.0078 31.522 20.0605 36.3047 20.0014 41.2749C19.8637 52.6409 29.6004 61.9625 41.5007 62C53.401 62.0187 63 52.8284 63 41.4999C63 30.3403 53.637 21.2438 41.9924 21C41.9334 21 41.8547 21 41.7957 21.0375C41.7368 21.0563 41.6778 21.0938 41.6384 21.1313C41.5991 21.1688 41.5597 21.2251 41.5204 21.2813C41.5007 21.3376 41.481 21.3939 41.481 21.4689V30.3966" stroke="white" stroke-width="3.5" stroke-linecap="round" stroke-linejoin="round"/>
<path d="M37.517 47.4315L28.6656 34.7976C28.5279 34.6209 28.4885 34.4047 28.5082 34.1886C28.5279 33.9725 28.6066 33.776 28.7639 33.6188C28.9212 33.4616 29.118 33.3831 29.3343 33.3633C29.5311 33.3437 29.7474 33.4027 29.9244 33.5206L42.5722 42.3622C43.3393 42.9124 43.8704 43.7572 44.0278 44.7004C44.1852 45.6435 43.9688 46.6062 43.418 47.3922C42.8672 48.1781 42.0411 48.7087 41.097 48.8854C40.1528 49.0622 39.189 48.8461 38.4022 48.3156C38.0678 48.0799 37.7531 47.7852 37.517 47.4315Z" fill="white"/>
</svg>
