<svg width="244" height="128" viewBox="0 0 244 128" fill="none" xmlns="http://www.w3.org/2000/svg">
<path d="M30.4788 13.784C30.9054 12.8027 31.1188 11.9707 31.1188 11.288C31.1188 10.2213 30.7134 9.368 29.9028 8.728C29.0921 8.088 27.9828 7.768 26.5748 7.768C26.4894 7.768 26.4468 7.64 26.4468 7.384C26.4468 7.128 26.4894 7 26.5748 7L29.4548 7.064C31.0761 7.14933 32.5268 7.192 33.8068 7.192C34.7454 7.192 35.7268 7.14933 36.7508 7.064L39.4388 7C39.5668 7 39.6308 7.128 39.6308 7.384C39.6308 7.64 39.5668 7.768 39.4388 7.768C38.2014 7.768 36.9214 8.32266 35.5988 9.432C34.2761 10.4987 33.2094 11.9493 32.3988 13.784L21.5188 37.912C20.5374 40.1307 19.7481 42.1787 19.1508 44.056C18.7668 45.208 18.4468 45.9973 18.1908 46.424C17.9348 46.808 17.5721 47 17.1028 47H4.94275C4.85742 47 4.81475 46.872 4.81475 46.616C4.81475 46.36 4.85742 46.232 4.94275 46.232C6.86275 46.232 8.82542 45.848 10.8308 45.08C12.8361 44.2693 14.6494 43.1813 16.2708 41.816C17.9348 40.408 19.1508 38.808 19.9188 37.016L30.4788 13.784ZM5.45475 12.312C4.47342 10.5627 3.64142 9.368 2.95875 8.728C2.27609 8.088 1.33742 7.768 0.142752 7.768C0.0574182 7.768 0.0147516 7.64 0.0147516 7.384C0.0147516 7.128 0.0574182 7 0.142752 7C1.08142 7 1.74275 7.02133 2.12675 7.064C3.40675 7.14933 5.07075 7.192 7.11875 7.192C10.1481 7.192 12.6441 7.14933 14.6068 7.064C15.1614 7.02133 15.8228 7 16.5908 7C16.6761 7 16.7188 7.128 16.7188 7.384C16.7188 7.64 16.6761 7.768 16.5908 7.768C13.9028 7.768 12.5588 8.408 12.5588 9.688C12.5588 10.2853 12.7721 10.9467 13.1988 11.672L23.8868 31.192L20.2388 38.744L5.45475 12.312ZM46.9988 33.88H58.1988V35.416H46.9988V33.88ZM68.3108 47.832C65.7934 47.832 63.5961 47.2347 61.7188 46.04C59.8414 44.8027 58.3908 43.16 57.3668 41.112C56.3428 39.064 55.8308 36.8453 55.8308 34.456C55.8308 31.64 56.4921 29.2507 57.8148 27.288C59.1801 25.3253 60.8868 23.8747 62.9348 22.936C65.0254 21.9547 67.1588 21.464 69.3348 21.464C71.8521 21.464 74.0281 22.0827 75.8628 23.32C77.7401 24.5573 79.1694 26.2 80.1508 28.248C81.1321 30.2533 81.6228 32.408 81.6228 34.712C81.6228 37.272 81.0041 39.5547 79.7668 41.56C78.5721 43.5227 76.9508 45.0587 74.9028 46.168C72.8974 47.2773 70.7001 47.832 68.3108 47.832ZM70.2948 46.488C73.4094 46.488 74.9668 43.4373 74.9668 37.336C74.9668 34.008 74.5614 31.256 73.7508 29.08C72.9401 26.904 71.9161 25.3253 70.6788 24.344C69.4414 23.3627 68.2041 22.872 66.9668 22.872C63.9374 22.872 62.4228 25.7733 62.4228 31.576C62.4228 34.7333 62.8068 37.4427 63.5748 39.704C64.3428 41.9653 65.3241 43.672 66.5188 44.824C67.7134 45.9333 68.9721 46.488 70.2948 46.488ZM40.6628 47C40.5774 47 40.5348 46.872 40.5348 46.616C40.5348 46.36 40.5774 46.232 40.6628 46.232C41.9854 46.232 42.8814 45.9333 43.3508 45.336C43.8628 44.696 44.1188 43.5227 44.1188 41.816V9.304C44.1188 7.81067 43.9694 6.744 43.6708 6.104C43.4148 5.464 42.9454 5.144 42.2628 5.144C41.6654 5.144 40.8548 5.37866 39.8308 5.848H39.7668C39.6388 5.848 39.5108 5.74133 39.3828 5.528C39.2974 5.272 39.2974 5.12266 39.3828 5.08L48.7268 0.663998L49.0468 0.599998C49.2601 0.599998 49.4734 0.706665 49.6868 0.919998C49.9428 1.09067 50.0708 1.26133 50.0708 1.432V41.816C50.0708 43.5227 50.3054 44.696 50.7748 45.336C51.2868 45.9333 52.2041 46.232 53.5268 46.232C53.6974 46.232 53.7828 46.36 53.7828 46.616C53.7828 46.872 53.6974 47 53.5268 47C52.4174 47 51.5214 46.9787 50.8388 46.936L47.1268 46.872L43.2868 46.936C42.6468 46.9787 41.7721 47 40.6628 47ZM119.543 47C119.415 47 119.351 46.872 119.351 46.616C119.351 46.36 119.415 46.232 119.543 46.232C120.866 46.232 121.762 45.9333 122.231 45.336C122.743 44.696 122.999 43.5227 122.999 41.816V32.6C122.999 30.296 122.594 28.5893 121.783 27.48C121.015 26.3707 119.821 25.816 118.199 25.816C116.877 25.816 115.597 26.136 114.359 26.776C113.122 27.416 112.119 28.2907 111.351 29.4L111.031 28.632C114.274 23.896 117.879 21.528 121.847 21.528C124.151 21.528 125.901 22.1893 127.095 23.512C128.333 24.8347 128.951 26.84 128.951 29.528V41.816C128.951 43.5227 129.186 44.696 129.655 45.336C130.167 45.9333 131.085 46.232 132.407 46.232C132.578 46.232 132.663 46.36 132.663 46.616C132.663 46.872 132.578 47 132.407 47C131.298 47 130.423 46.9787 129.783 46.936L125.943 46.872L122.231 46.936C121.549 46.9787 120.653 47 119.543 47ZM102.775 47C102.647 47 102.583 46.872 102.583 46.616C102.583 46.36 102.647 46.232 102.775 46.232C104.098 46.232 104.994 45.9333 105.463 45.336C105.975 44.696 106.231 43.5227 106.231 41.816V32.6C106.231 30.296 105.826 28.5893 105.015 27.48C104.247 26.3707 103.053 25.816 101.431 25.816C100.109 25.816 98.8286 26.136 97.5913 26.776C96.3539 27.416 95.3513 28.2907 94.5833 29.4L94.2633 28.632C97.5059 23.896 101.111 21.528 105.079 21.528C107.341 21.528 109.09 22.168 110.327 23.448C111.565 24.6853 112.183 26.4773 112.183 28.824V41.816C112.183 43.5227 112.418 44.696 112.887 45.336C113.399 45.9333 114.317 46.232 115.639 46.232C115.81 46.232 115.895 46.36 115.895 46.616C115.895 46.872 115.81 47 115.639 47C114.53 47 113.655 46.9787 113.015 46.936L109.175 46.872L105.463 46.936C104.781 46.9787 103.885 47 102.775 47ZM86.3273 47C86.1993 47 86.1353 46.872 86.1353 46.616C86.1353 46.36 86.1993 46.232 86.3273 46.232C87.6499 46.232 88.5459 45.9333 89.0153 45.336C89.4846 44.696 89.7193 43.5227 89.7193 41.816V29.784C89.7193 28.4613 89.5486 27.5013 89.2073 26.904C88.9086 26.264 88.4179 25.944 87.7353 25.944C87.0099 25.944 85.9859 26.2427 84.6633 26.84H84.5353C84.4073 26.84 84.3006 26.7333 84.2153 26.52C84.1726 26.3067 84.1939 26.1787 84.2793 26.136L93.1753 21.784C93.4313 21.6987 93.5806 21.656 93.6233 21.656C94.1353 21.656 94.6046 22.2107 95.0313 23.32C95.5006 24.3867 95.7353 25.816 95.7353 27.608V41.816C95.7353 43.5227 95.9699 44.696 96.4393 45.336C96.9513 45.9333 97.8686 46.232 99.1913 46.232C99.3193 46.232 99.3833 46.36 99.3833 46.616C99.3833 46.872 99.3193 47 99.1913 47C98.0819 47 97.2073 46.9787 96.5673 46.936L92.7273 46.872L88.9513 46.936C88.3113 46.9787 87.4366 47 86.3273 47ZM153.045 47C152.917 47 152.853 46.872 152.853 46.616C152.853 46.36 152.917 46.232 153.045 46.232C154.069 46.232 154.816 46.1253 155.285 45.912C155.797 45.6987 156.139 45.2933 156.309 44.696C156.48 44.056 156.565 43.096 156.565 41.816V30.36C156.565 27.5867 155.904 26.2 154.581 26.2C154.112 26.2 153.557 26.3493 152.917 26.648H152.853C152.725 26.648 152.619 26.5413 152.533 26.328C152.448 26.072 152.469 25.9227 152.597 25.88L161.173 21.784C161.259 21.7413 161.365 21.72 161.493 21.72C161.707 21.72 161.92 21.8267 162.133 22.04C162.389 22.2107 162.517 22.3813 162.517 22.552V41.816C162.517 43.096 162.603 44.056 162.773 44.696C162.944 45.2933 163.264 45.6987 163.733 45.912C164.203 46.1253 164.949 46.232 165.973 46.232C166.059 46.232 166.101 46.36 166.101 46.616C166.101 46.872 166.059 47 165.973 47C164.779 47 163.861 46.9787 163.221 46.936L159.637 46.872L155.861 46.936C155.179 46.9787 154.24 47 153.045 47ZM135.829 47C135.701 47 135.637 46.872 135.637 46.616C135.637 46.36 135.701 46.232 135.829 46.232C136.853 46.232 137.6 46.1253 138.069 45.912C138.581 45.6987 138.923 45.2933 139.093 44.696C139.264 44.056 139.349 43.096 139.349 41.816V30.36C139.349 27.5867 138.688 26.2 137.365 26.2C136.896 26.2 136.341 26.3493 135.701 26.648H135.637C135.509 26.648 135.403 26.5413 135.317 26.328C135.232 26.072 135.253 25.9227 135.381 25.88L143.957 21.784C144.043 21.7413 144.149 21.72 144.277 21.72C144.491 21.72 144.704 21.8267 144.917 22.04C145.173 22.2107 145.301 22.3813 145.301 22.552V41.816C145.301 43.096 145.387 44.056 145.557 44.696C145.728 45.2933 146.048 45.6987 146.517 45.912C146.987 46.1253 147.733 46.232 148.757 46.232C148.843 46.232 148.885 46.36 148.885 46.616C148.885 46.872 148.843 47 148.757 47C147.563 47 146.645 46.9787 146.005 46.936L142.421 46.872L138.709 46.936C138.027 46.9787 137.067 47 135.829 47ZM142.229 33.88H159.445V35.416H142.229V33.88ZM182.384 47.832C175.856 47.832 172.592 45.6987 172.592 41.432V30.36C172.592 27.5867 171.931 26.2 170.608 26.2C170.139 26.2 169.606 26.3493 169.008 26.648H168.944C168.774 26.648 168.646 26.5413 168.56 26.328C168.475 26.072 168.496 25.9227 168.624 25.88L177.2 21.784L177.52 21.72C177.734 21.72 177.947 21.8267 178.16 22.04C178.416 22.2107 178.544 22.3813 178.544 22.552V39.576C178.544 41.9227 178.928 43.736 179.696 45.016C180.507 46.2533 181.68 46.872 183.216 46.872C185.862 46.872 187.184 44.8667 187.184 40.856C187.184 36.12 185.264 33.752 181.424 33.752C179.675 33.752 177.947 34.1787 176.24 35.032L175.856 33.816C178.032 32.8347 180.656 32.344 183.728 32.344C187.056 32.344 189.531 32.9413 191.152 34.136C192.774 35.3307 193.584 37.144 193.584 39.576C193.584 42.136 192.667 44.1627 190.832 45.656C189.04 47.1067 186.224 47.832 182.384 47.832ZM196.272 47C196.144 47 196.08 46.872 196.08 46.616C196.08 46.36 196.144 46.232 196.272 46.232C197.595 46.232 198.491 45.9333 198.96 45.336C199.43 44.696 199.664 43.5227 199.664 41.816V30.36C199.664 28.9093 199.515 27.864 199.216 27.224C198.918 26.584 198.427 26.264 197.744 26.264C197.19 26.264 196.4 26.4987 195.376 26.968H195.312C195.142 26.968 195.014 26.8613 194.928 26.648C194.843 26.392 194.864 26.2427 194.992 26.2L204.656 21.72L204.848 21.656C205.062 21.656 205.275 21.7627 205.488 21.976C205.702 22.1893 205.808 22.3813 205.808 22.552V23.96C205.723 25.6667 205.68 27.7573 205.68 30.232V41.816C205.68 43.5227 205.915 44.696 206.384 45.336C206.896 45.9333 207.814 46.232 209.136 46.232C209.264 46.232 209.328 46.36 209.328 46.616C209.328 46.872 209.264 47 209.136 47C208.027 47 207.152 46.9787 206.512 46.936L202.672 46.872L198.896 46.936C198.256 46.9787 197.382 47 196.272 47ZM223.657 47.768C221.31 47.768 219.454 47.0427 218.089 45.592C216.766 44.0987 216.105 42.1573 216.105 39.768V30.36C216.105 27.5867 215.443 26.2 214.121 26.2C213.651 26.2 213.118 26.3493 212.521 26.648H212.457C212.286 26.648 212.158 26.5413 212.073 26.328C211.987 26.072 212.009 25.9227 212.137 25.88L220.713 21.784L221.033 21.72C221.246 21.72 221.459 21.8267 221.673 22.04C221.929 22.2107 222.057 22.3813 222.057 22.552V36.696C222.057 41.304 223.827 43.608 227.369 43.608C228.563 43.608 229.779 43.2667 231.017 42.584C232.297 41.9013 233.299 41.0053 234.025 39.896L234.409 40.664C232.873 42.8827 231.209 44.632 229.417 45.912C227.625 47.1493 225.705 47.768 223.657 47.768ZM238.761 39.576C238.761 41.0267 238.889 42.0507 239.145 42.648C239.443 43.2453 239.913 43.544 240.553 43.544C241.15 43.544 242.025 43.3093 243.177 42.84H243.305C243.433 42.84 243.539 42.9467 243.625 43.16C243.753 43.3733 243.753 43.5013 243.625 43.544L234.793 47.832C234.707 47.8747 234.601 47.896 234.473 47.896C234.003 47.896 233.598 47.3413 233.257 46.232C232.958 45.1227 232.809 43.6293 232.809 41.752V30.36C232.809 27.5867 232.147 26.2 230.825 26.2C230.355 26.2 229.801 26.3493 229.161 26.648H229.097C228.969 26.648 228.862 26.5413 228.777 26.328C228.691 26.072 228.713 25.9227 228.841 25.88L237.417 21.784C237.502 21.7413 237.609 21.72 237.737 21.72C237.95 21.72 238.163 21.8267 238.377 22.04C238.633 22.2107 238.761 22.3813 238.761 22.552V39.576ZM227.689 15.96C228.969 15.96 229.886 15.64 230.441 15C230.995 14.3173 231.358 13.3787 231.529 12.184C231.785 10.904 232.083 9.96533 232.425 9.368C232.809 8.77066 233.513 8.472 234.537 8.472C235.39 8.472 236.051 8.70666 236.521 9.176C236.99 9.60266 237.225 10.2 237.225 10.968C237.225 12.0347 236.777 13.0373 235.881 13.976C234.985 14.9147 233.811 15.6613 232.361 16.216C230.91 16.728 229.374 16.984 227.753 16.984C226.089 16.984 224.51 16.7067 223.017 16.152C221.566 15.5973 220.393 14.872 219.497 13.976C218.643 13.0373 218.217 12.0347 218.217 10.968C218.217 10.2 218.451 9.60266 218.921 9.176C219.39 8.70666 220.073 8.472 220.969 8.472C221.779 8.472 222.377 8.664 222.761 9.048C223.187 9.38933 223.486 9.816 223.657 10.328C223.827 10.7973 223.998 11.5013 224.169 12.44C224.339 13.5493 224.638 14.424 225.065 15.064C225.534 15.6613 226.409 15.96 227.689 15.96ZM65.36 93.784C65.7867 92.8027 66 91.9707 66 91.288C66 90.2213 65.5947 89.368 64.784 88.728C63.9733 88.088 62.864 87.768 61.456 87.768C61.3707 87.768 61.328 87.64 61.328 87.384C61.328 87.128 61.3707 87 61.456 87L64.336 87.064C65.9573 87.1493 67.408 87.192 68.688 87.192C69.6267 87.192 70.608 87.1493 71.632 87.064L74.32 87C74.448 87 74.512 87.128 74.512 87.384C74.512 87.64 74.448 87.768 74.32 87.768C73.0827 87.768 71.8027 88.3227 70.48 89.432C69.1573 90.4987 68.0907 91.9493 67.28 93.784L56.4 117.912C55.4187 120.131 54.6293 122.179 54.032 124.056C53.648 125.208 53.328 125.997 53.072 126.424C52.816 126.808 52.4533 127 51.984 127H39.824C39.7387 127 39.696 126.872 39.696 126.616C39.696 126.36 39.7387 126.232 39.824 126.232C41.744 126.232 43.7067 125.848 45.712 125.08C47.7173 124.269 49.5307 123.181 51.152 121.816C52.816 120.408 54.032 118.808 54.8 117.016L65.36 93.784ZM40.336 92.312C39.3547 90.5627 38.5227 89.368 37.84 88.728C37.1573 88.088 36.2187 87.768 35.024 87.768C34.9387 87.768 34.896 87.64 34.896 87.384C34.896 87.128 34.9387 87 35.024 87C35.9627 87 36.624 87.0213 37.008 87.064C38.288 87.1493 39.952 87.192 42 87.192C45.0293 87.192 47.5253 87.1493 49.488 87.064C50.0427 87.0213 50.704 87 51.472 87C51.5573 87 51.6 87.128 51.6 87.384C51.6 87.64 51.5573 87.768 51.472 87.768C48.784 87.768 47.44 88.408 47.44 89.688C47.44 90.2853 47.6533 90.9467 48.08 91.672L58.768 111.192L55.12 118.744L40.336 92.312ZM77.242 103.192C75.962 103.192 74.7247 103.875 73.53 105.24C72.3353 106.605 71.4393 108.077 70.842 109.656C70.7993 109.699 70.6927 109.72 70.522 109.72C70.1807 109.72 70.0313 109.635 70.074 109.464L72.122 100.952C72.122 100.867 72.2073 100.824 72.378 100.824C72.506 100.824 72.6127 100.867 72.698 100.952C72.826 100.995 72.8687 101.037 72.826 101.08C72.7833 101.251 72.762 101.464 72.762 101.72C72.762 102.573 73.1033 103 73.786 103C74.0847 103 74.4473 102.936 74.874 102.808C75.3433 102.637 75.6633 102.531 75.834 102.488C77.6687 101.805 79.3327 101.464 80.826 101.464C82.874 101.464 84.41 101.933 85.434 102.872C86.5007 103.811 87.034 105.112 87.034 106.776C87.034 108.227 86.6287 109.4 85.818 110.296C85.0073 111.149 83.5993 112.131 81.594 113.24C79.8873 114.179 78.6287 115.075 77.818 115.928C77.0073 116.781 76.602 117.976 76.602 119.512C76.602 121.005 77.1567 122.2 78.266 123.096C79.3753 123.949 80.7193 124.376 82.298 124.376C83.4073 124.376 84.474 124.141 85.498 123.672C86.5647 123.203 87.4607 122.499 88.186 121.56C88.2287 121.475 88.314 121.432 88.442 121.432C88.57 121.432 88.6767 121.496 88.762 121.624C88.8473 121.752 88.8473 121.88 88.762 122.008C87.5673 123.843 85.9887 125.251 84.026 126.232C82.106 127.213 80.122 127.704 78.074 127.704C75.9407 127.704 74.106 127.213 72.57 126.232C71.034 125.251 70.266 123.736 70.266 121.688C70.266 120.408 70.65 119.277 71.418 118.296C72.2287 117.272 73.6153 116.163 75.578 114.968C77.37 113.987 78.6287 112.941 79.354 111.832C80.122 110.68 80.506 109.379 80.506 107.928C80.506 106.477 80.186 105.325 79.546 104.472C78.9487 103.619 78.1807 103.192 77.242 103.192ZM104.693 127.832C102.048 127.832 99.7223 127.235 97.717 126.04C95.7543 124.803 94.2397 123.16 93.173 121.112C92.1063 119.021 91.573 116.76 91.573 114.328C91.573 111.555 92.277 109.208 93.685 107.288C95.093 105.325 96.885 103.875 99.061 102.936C101.237 101.955 103.477 101.464 105.781 101.464C108.426 101.464 110.73 102.083 112.693 103.32C114.656 104.557 116.149 106.2 117.173 108.248C118.24 110.253 118.773 112.408 118.773 114.712C118.773 117.272 118.133 119.555 116.853 121.56C115.573 123.523 113.845 125.059 111.669 126.168C109.536 127.277 107.21 127.832 104.693 127.832ZM106.613 126.488C108.277 126.488 109.536 125.677 110.389 124.056C111.285 122.392 111.733 120.024 111.733 116.952C111.733 113.965 111.349 111.405 110.581 109.272C109.813 107.139 108.81 105.539 107.573 104.472C106.336 103.363 105.013 102.808 103.605 102.808C100.192 102.808 98.485 105.859 98.485 111.96C98.485 114.819 98.8477 117.357 99.573 119.576C100.298 121.752 101.28 123.459 102.517 124.696C103.754 125.891 105.12 126.488 106.613 126.488ZM119.529 127C119.315 127 119.209 126.872 119.209 126.616C119.209 126.36 119.315 126.232 119.529 126.232C120.297 126.232 121.107 125.699 121.961 124.632C122.857 123.523 123.945 121.496 125.225 118.552L132.649 101.336C132.734 101.165 132.862 101.08 133.033 101.08C133.203 101.08 133.331 101.165 133.417 101.336L141.353 118.232C142.462 120.664 143.315 122.413 143.913 123.48C144.51 124.504 145.107 125.229 145.705 125.656C146.302 126.04 147.091 126.232 148.073 126.232C148.286 126.232 148.393 126.36 148.393 126.616C148.393 126.872 148.286 127 148.073 127C147.305 127 146.11 126.957 144.489 126.872C142.782 126.787 141.545 126.744 140.777 126.744C140.094 126.744 138.985 126.787 137.449 126.872C135.998 126.957 134.974 127 134.377 127C134.206 127 134.121 126.872 134.121 126.616C134.121 126.36 134.206 126.232 134.377 126.232C135.315 126.232 135.998 126.125 136.425 125.912C136.851 125.656 137.065 125.293 137.065 124.824C137.065 124.483 136.937 124.035 136.681 123.48C136.467 122.883 136.211 122.264 135.913 121.624L130.153 109.4L132.969 104.472L126.697 119.128C125.929 120.92 125.545 122.371 125.545 123.48C125.545 125.315 126.569 126.232 128.617 126.232C128.83 126.232 128.937 126.36 128.937 126.616C128.937 126.872 128.83 127 128.617 127C128.147 127 127.486 126.957 126.633 126.872C125.779 126.787 124.969 126.744 124.201 126.744C123.305 126.744 122.43 126.787 121.577 126.872C120.809 126.957 120.126 127 119.529 127ZM161.906 127.832C159.26 127.832 156.935 127.235 154.93 126.04C152.967 124.803 151.452 123.16 150.386 121.112C149.319 119.021 148.786 116.76 148.786 114.328C148.786 111.555 149.49 109.208 150.898 107.288C152.306 105.325 154.098 103.875 156.274 102.936C158.45 101.955 160.69 101.464 162.994 101.464C165.639 101.464 167.943 102.083 169.906 103.32C171.868 104.557 173.362 106.2 174.386 108.248C175.452 110.253 175.986 112.408 175.986 114.712C175.986 117.272 175.346 119.555 174.066 121.56C172.786 123.523 171.058 125.059 168.882 126.168C166.748 127.277 164.423 127.832 161.906 127.832ZM163.826 126.488C165.49 126.488 166.748 125.677 167.602 124.056C168.498 122.392 168.946 120.024 168.946 116.952C168.946 113.965 168.562 111.405 167.794 109.272C167.026 107.139 166.023 105.539 164.786 104.472C163.548 103.363 162.226 102.808 160.818 102.808C157.404 102.808 155.698 105.859 155.698 111.96C155.698 114.819 156.06 117.357 156.786 119.576C157.511 121.752 158.492 123.459 159.73 124.696C160.967 125.891 162.332 126.488 163.826 126.488ZM179.53 127C179.402 127 179.338 126.872 179.338 126.616C179.338 126.36 179.402 126.232 179.53 126.232C180.554 126.232 181.301 126.125 181.77 125.912C182.282 125.699 182.623 125.293 182.794 124.696C182.965 124.056 183.05 123.096 183.05 121.816V89.304C183.05 87.8107 182.901 86.744 182.602 86.104C182.346 85.464 181.877 85.144 181.194 85.144C180.597 85.144 179.786 85.3787 178.762 85.848H178.698C178.57 85.848 178.442 85.7413 178.314 85.528C178.229 85.272 178.229 85.1227 178.314 85.08L187.658 80.664L187.978 80.6C188.191 80.6 188.405 80.7067 188.618 80.92C188.874 81.0907 189.002 81.2613 189.002 81.432V121.816C189.002 123.096 189.087 124.056 189.258 124.696C189.429 125.293 189.749 125.699 190.218 125.912C190.73 126.125 191.477 126.232 192.458 126.232C192.586 126.232 192.65 126.36 192.65 126.616C192.65 126.872 192.586 127 192.458 127C191.263 127 190.346 126.979 189.706 126.936L186.122 126.872L182.41 126.936C181.727 126.979 180.767 127 179.53 127ZM201.226 127C201.141 127 200.949 127 200.65 127C200.351 127.043 199.839 126.595 199.114 125.656C198.389 124.717 197.194 123.117 195.53 120.856L194.186 119C193.247 117.635 192.565 116.696 192.138 116.184C191.711 115.672 191.263 115.309 190.794 115.096C190.367 114.883 189.77 114.776 189.002 114.776C188.746 114.776 187.978 114.819 186.698 114.904L186.634 113.752C188.469 113.581 190.282 113.496 192.074 113.496C193.781 113.496 195.061 113.645 195.914 113.944C196.81 114.243 197.578 114.755 198.218 115.48C198.901 116.163 200.053 117.528 201.674 119.576C202.101 120.131 202.783 121.069 203.722 122.392C204.661 123.8 205.45 124.781 206.09 125.336C206.73 125.891 207.647 126.189 208.842 126.232C208.97 126.232 209.034 126.36 209.034 126.616C209.034 126.872 208.97 127 208.842 127H201.226ZM192.074 113.496C192.927 113.496 193.887 112.344 194.954 110.04C196.575 106.755 197.983 104.536 199.178 103.384C200.415 102.232 201.738 101.656 203.146 101.656C204.383 101.656 205.301 101.955 205.898 102.552C206.538 103.107 206.858 103.853 206.858 104.792C206.858 105.773 206.581 106.563 206.026 107.16C205.471 107.757 204.661 108.056 203.594 108.056C202.954 108.056 202.293 107.885 201.61 107.544C200.927 107.203 200.309 107.032 199.754 107.032C199.071 107.032 198.495 107.267 198.026 107.736C197.599 108.163 197.023 109.101 196.298 110.552C194.933 113.368 193.525 114.776 192.074 114.776V113.496Z" fill="white"/>
</svg>
